<svg xmlns="http://www.w3.org/2000/svg" width="960" height="540" viewBox="0 0 960 540"><rect x="12" y="12" width="936" height="516" rx="22" fill="#081222" fill-opacity=".96" stroke="#2BD4C4" stroke-width="2"/><path d="M42 44h876v452H42Z" fill="#132743" stroke="#FFC24B"/><g fill="none" stroke="#2BD4C4" opacity=".18"><path d="M42 134h876M42 224h876M42 314h876M42 404h876M217 44v452M392 44v452M567 44v452M742 44v452"/></g><path d="M124 408 248 322l90 28 142-164 140 54 178-126" fill="none" stroke="#FFC24B" stroke-width="7" stroke-linecap="round"/><g fill="#2BD4C4" stroke="#F4EFE6" stroke-width="3"><circle cx="124" cy="408" r="12"/><circle cx="338" cy="350" r="12"/><circle cx="620" cy="240" r="12"/><circle cx="798" cy="114" r="12"/></g><circle cx="480" cy="186" r="42" fill="#FF3B5C" opacity=".18" stroke="#FF3B5C" stroke-width="3"/></svg>
